<svg xmlns="http://www.w3.org/2000/svg" viewBox="0 0 216 216"><g fill-rule="evenodd" clip-rule="evenodd" fill="#FFF"><path d="M20 209.1H6.9V179H20c9.4 0 14.2 4.8 14.2 14.3 0 10.5-4.8 15.8-14.2 15.8zm-7.5-4.8h6.7c6.3 0 9.4-3.7 9.4-11.1 0-6.3-3.1-9.4-9.4-9.4h-6.7v20.5zM40 209.1h-5.7L47.1 179h6.1l13.1 30.1h-6.1l-3.8-8.2h-9.6l1.9-4.8H55l-5-11.4M63.1 179h23v4.8h-8.7v25.3h-5.6v-25.3h-8.7M88.9 209.1h-5.7L96 179h6.1l13.1 30.1h-6.1l-3.8-8.2h-9.7l2-4.8h6.2l-4.9-11.4M132 209.1h-13.1V179H132c9.5 0 14.2 4.8 14.2 14.3 0 10.5-4.7 15.8-14.2 15.8zm-7.5-4.8h6.7c6.3 0 9.4-3.7 9.4-11.1 0-6.3-3.1-9.4-9.4-9.4h-6.7v20.5zM150 194.1c0-10.2 5.1-15.4 15.2-15.4 10 0 14.9 5.1 14.9 15.4 0 10.2-5 15.3-14.9 15.3-9.7 0-14.8-5.1-15.2-15.3zm15.2 10.4c6.1 0 9.1-3.5 9.1-10.5 0-6.9-3-10.4-9.1-10.4-6.2 0-9.4 3.5-9.4 10.4 0 7 3.1 10.5 9.4 10.5zM203.5 196.9v7.1c-1.3.3-2.5.5-3.5.5-6.9 0-10.3-3.6-10.3-10.9 0-6.7 3.6-10 10.9-10 3 0 5.9.6 8.5 1.7v-5.1c-2.6-1-5.6-1.5-8.9-1.5-10.9 0-16.3 5-16.3 14.9 0 10.5 5.3 15.7 16 15.7 3.7 0 6.7-.5 9.2-1.6V192H200l-1.9 5h5.4z"/></g><path fill="#FFF" d="M177.9 88.5l-44.8 8.1c-1.1 1.4-3.9 3.9-5.2 4.6-5.7 2.8-9.5 2-12.8 1.2-2.1-.5-3.4-.8-5.1-1.6l-10.9 1.5 6.6 55.4 76.7-13.8-4.5-55.4zm-68.2 63.8l-.6-6 12.5-19.1 14.2 4.2L148 111l14.7 9.7 11.1-23.4 4 42.6-68.1 12.4zm-3.3-54.4c-5.5-3.6-11.2-8.6-13.7-11.5-.4-.3-.4-1.7-.4-1.7 2.3 1.8 11.6 8.4 21.5 11.5 3.5 1.1 8.9 1.5 13.5-1.2 3.6-2 7.8-5.5 10.4-9.1l.5.8c0 .5-1.2 3.2-1.8 4.2 1.1.6 1.9.8 3.1 1.1l8.2-1.3c2.9-4.8 5.1-12.4 2.8-19.7-1.3-4.2-8-12.5-8.5-13-1.7-1.6.3-7.9-3.1-14.7-3.5-7.2-12.7-14.7-16.7-18 1.2.9 8.4 3.8 11.8 7.8.3-.4.4-2.6.7-3.2-2.9-3.8-3.1-10.5-3.1-12.3 0-3.3-1.7-7.1-1.7-7.1s2.9 2.3 3.6 6.2c.9 4.7 2.8 8.4 5.3 11.5 4.7 5.9 9 8.9 11.1 6.7 2.6-2.6-2.6-14.3-9.2-20.8-7.7-7.6-9.8-6.6-14.3-5-3.6 1.3-5.6 11.6-15 11.4-1.6-.2-5.7-.3-7.8-.3 1.1-1.5 2-2.6 2-2.6s-3.2 1.3-5.9 2.9l-.2-.3c.9-1.9 1.9-3.1 1.9-3.1s-2.5 1.5-4.8 3.3c.4-2.3 2-3.7 2-3.7s-3.2.6-7.3 5.1c-4.6 1.3-5.7 2.1-9.4 3.7-6-1.3-8.8-3.4-11.5-7.3-2.1-3-5.7-3.4-9.4-1.9-5.4 2.3-12.3 5.3-12.3 5.3s2.2-.1 4.6 0c-3.2 1.2-6.3 2.9-6.3 2.9s1.5-.1 3.4 0c-1.3 1.1-2 1.6-3.2 2.4-2.9 2.1-5.3 4.6-5.3 4.6s2-.9 3.8-1.4c-1.2 2.9-3.7 5-3.3 8.5.4 3.2 4.4 9.8 9.4 13.8.4.4 7.4 6.8 12.6 4.1 5.2-2.6 7.3-5 8.1-8.6 1-4.1.4-7.2-1.7-16.2-.7-3-2.6-9-3.5-11.9l.2-.1c1.7 3.6 6.1 13.1 7.8 19.5 2.7 9.9 1.9 15 .6 16.8-3.8 5.6-13.5 6.3-17.9 3.2-.7 10.7 1.7 15.4 2.5 17.8-.3 2.9 1.5 8 1.5 8s.2-2.3 1-3.5c.2 2.7 1.6 5.9 1.6 5.9s-.1-2 .5-3.7c.9 1.5 1.5 1.8 2.3 2.9.8 2.9 2.5 5 2.5 5s-.3-1.6-.1-3.2c4.1 3.9 4.7 9.6 5.2 13.9 1.1 12-18.9 21.5-22.8 29-2.9 4.4-4.7 11.5.3 15.6 12.1 10 7.4 12.8 13.5 17.2 8.3 6 18.6 3.3 22.2-1.6 4.9-6.8 3.6-13.3 1.8-19.3-1.4-4.7-5.3-12.6-10.1-15.6-4.9-3.1-9.7-3.7-13.7-3.3l.4-.4c5.8-1.2 11.9-.5 16.3 2.3 5 3.2 9.5 8.7 11.9 17.1 2.7-.4 3.1-.6 5.6-.9L94.8 99l11.6-1.1zm28-54.3c5.1 2.4 4.5 6.9 4.6 9.6v1.6c-.7-.4-1.8-.7-3.6-.6-.5 0-1 .1-1.5.2-1.9-1-3-3-4.1-5.1-.1-.2-.2-.4-.2-.5 0-.1-.1-.2-.1-.2v-.1c-.6-1.8-.2-2.2.1-2.7.2-.6 1.2-1-.2-1.5-.1 0-.3-.1-.4-.1.7-1.2 3.5-1.5 5.4-.6zm-6.3 29.8c1-.8 5.5-2.2 9.8-2.7 2.2-.3 5.4-.4 6 0 1.3.7 1.3 3 .4 5.1-1.3 3.1-3.2 6.4-5.3 6.7-3.5.5-6.8-1.4-10.5-4.2-1.4-1.1-2.2-3.5-.4-4.9zm-33-23.2c5.5-3.8 12.6-2.3 11.4-1.2-2.3 2.2.8 1.5 1.1 5.5.2 2.9-.7 4.6-1.5 5.5-1.7.2-3.8.6-6.3 1.5-1.5.5-2.8 1-3.9 1.6-.3-.2-.6-.4-1-.8-4-3.4-3.8-9.4.2-12.1z"/></svg>